<svg width="19" height="19" viewBox="0 0 19 19" fill="none" xmlns="http://www.w3.org/2000/svg">
<path d="M16.6251 6.33317H11.6297L12.3817 2.71525L12.4055 2.46192C12.4055 2.13734 12.2709 1.8365 12.0572 1.62275L11.218 0.791504L6.00883 6.00859C5.71591 6.29359 5.54175 6.68942 5.54175 7.12484V15.0415C5.54175 15.9123 6.25425 16.6248 7.12508 16.6248H14.2501C14.9072 16.6248 15.4692 16.229 15.7067 15.659L18.0976 10.0778C18.1688 9.89567 18.2084 9.70567 18.2084 9.49984V7.9165C18.2084 7.04567 17.4959 6.33317 16.6251 6.33317ZM16.6251 9.49984L14.2501 15.0415H7.12508V7.12484L10.5609 3.689L9.68216 7.9165H16.6251V9.49984ZM0.791748 7.12484H3.95841V16.6248H0.791748V7.12484Z" fill="#5B5B5B"/>
</svg>
