<svg width="110" height="69" viewBox="0 0 110 69" fill="none" xmlns="http://www.w3.org/2000/svg">
<path d="M54.5003 16.8828C50.3641 16.8828 47.0003 20.2466 47.0003 24.3828C47.0003 28.5191 50.3641 31.8828 54.5003 31.8828C58.6366 31.8828 62.0003 28.5191 62.0003 24.3828C62.0003 20.2466 58.6366 16.8828 54.5003 16.8828Z" fill="black"/>
<path d="M69.5001 11.2577H65.8814C64.6289 11.2577 63.457 10.6315 62.7614 9.58711L61.237 7.29961C60.5414 6.25711 59.3695 5.63086 58.117 5.63086H50.8814C49.6289 5.63086 48.457 6.25711 47.7614 7.29961L46.237 9.58711C45.5432 10.6315 44.3714 11.2577 43.1189 11.2577H39.5001C37.4301 11.2577 35.7501 12.9377 35.7501 15.0077V35.6327C35.7501 37.7027 37.4301 39.3827 39.5001 39.3827H69.5001C71.5701 39.3827 73.2501 37.7027 73.2501 35.6327V15.0077C73.2501 12.9359 71.5701 11.2577 69.5001 11.2577ZM54.5001 35.6327C48.2957 35.6327 43.2501 30.5871 43.2501 24.3827C43.2501 18.1784 48.2957 13.1327 54.5001 13.1327C60.7045 13.1327 65.7501 18.1784 65.7501 24.3827C65.7501 30.5871 60.7045 35.6327 54.5001 35.6327Z" fill="black"/>
<path d="M54.5001 16.8736C50.3639 16.8736 47.0001 20.2374 47.0001 24.3736C47.0001 28.5099 50.3639 31.8736 54.5001 31.8736C58.6364 31.8736 62.0001 28.5099 62.0001 24.3736C62.0001 20.2374 58.6364 16.8736 54.5001 16.8736Z" fill="black"/>
<path d="M28.7814 47.442V57.7279C28.7814 58.7914 28.5307 59.7436 28.0293 60.5843C27.5279 61.425 26.8164 62.0833 25.8947 62.5594C24.978 63.0355 23.9195 63.2735 22.7192 63.2735C21.5139 63.2735 20.4529 63.0355 19.5362 62.5594C18.6196 62.0833 17.9105 61.425 17.4092 60.5843C16.9078 59.7436 16.6571 58.7914 16.6571 57.7279V47.442H18.5866V57.576C18.5866 58.3306 18.7538 59.0016 19.088 59.5891C19.4223 60.1715 19.9009 60.6298 20.5238 60.9641C21.1467 61.2983 21.8785 61.4655 22.7192 61.4655C23.5599 61.4655 24.2918 61.2983 24.9147 60.9641C25.5376 60.6298 26.0137 60.1715 26.3429 59.5891C26.672 59.0016 26.8366 58.3306 26.8366 57.576V47.442H28.7814ZM31.3318 47.442H36.6191C37.794 47.442 38.7791 47.6547 39.5742 48.0801C40.3693 48.5055 40.9593 49.093 41.3442 49.8425C41.7291 50.587 41.9216 51.4328 41.9216 52.3798C41.9216 53.3269 41.7291 54.1752 41.3442 54.9247C40.9593 55.6692 40.3718 56.2592 39.5818 56.6948C38.7917 57.1303 37.8143 57.3481 36.6495 57.3481H32.8663V55.6312H36.5583C37.3534 55.6312 38.0067 55.4919 38.5182 55.2134C39.0348 54.9349 39.4121 54.555 39.6501 54.0739C39.8882 53.5877 40.0072 53.023 40.0072 52.3798C40.0072 51.7366 39.8882 51.177 39.6501 50.701C39.4121 50.2198 39.0348 49.8425 38.5182 49.5691C38.0067 49.2956 37.3483 49.1588 36.5431 49.1588H33.2613V63H31.3318V47.442ZM43.7506 47.442H45.6802V61.2831H52.897V63H43.7506V47.442ZM67.157 55.221C67.157 56.8315 66.8632 58.2394 66.2758 59.4448C65.6883 60.6501 64.8729 61.5794 63.8296 62.2327C62.7863 62.886 61.6013 63.2127 60.2744 63.2127C58.9424 63.2127 57.7548 62.886 56.7115 62.2327C55.6733 61.5794 54.8605 60.6501 54.273 59.4448C53.6855 58.2394 53.3918 56.8315 53.3918 55.221C53.3918 53.6105 53.6855 52.2 54.273 50.9896C54.8605 49.7792 55.6733 48.8499 56.7115 48.2017C57.7548 47.5534 58.9424 47.2293 60.2744 47.2293C61.6013 47.2293 62.7863 47.5534 63.8296 48.2017C64.8729 48.8499 65.6883 49.7792 66.2758 50.9896C66.8632 52.2 67.157 53.6105 67.157 55.221ZM65.273 55.221C65.273 53.9194 65.0552 52.8052 64.6197 51.8785C64.1841 50.9466 63.5891 50.2401 62.8345 49.759C62.0798 49.2779 61.2265 49.0373 60.2744 49.0373C59.3223 49.0373 58.4689 49.2779 57.7143 49.759C56.9597 50.2401 56.3646 50.9466 55.9291 51.8785C55.4935 52.8052 55.2758 53.9194 55.2758 55.221C55.2758 56.5226 55.4935 57.6393 55.9291 58.5711C56.3646 59.4979 56.9597 60.2019 57.7143 60.683C58.4689 61.1641 59.3223 61.4047 60.2744 61.4047C61.2265 61.4047 62.0798 61.1641 62.8345 60.683C63.5891 60.2019 64.1841 59.4979 64.6197 58.5711C65.0552 57.6393 65.273 56.5226 65.273 55.221ZM67.0364 63L72.7339 47.442H74.7698L80.4673 63H78.4314L73.8126 49.9489H73.6911L69.0723 63H67.0364ZM77.7477 56.9227V58.6243H69.7712V56.9227H77.7477ZM82.7733 63V61.2831H86.4045C87.6555 61.2831 88.7013 61.0401 89.542 60.5539C90.3877 60.0677 91.0183 59.3713 91.4335 58.4648C91.8488 57.5582 92.0565 56.4669 92.0565 55.1906C92.0565 53.9296 91.8514 52.8508 91.4411 51.9544C91.0309 51.0529 90.4181 50.3616 89.6027 49.8805C88.7924 49.3994 87.7922 49.1588 86.602 49.1588H82.6822V47.442H86.7236C88.2277 47.442 89.5192 47.7509 90.5979 48.3688C91.6817 48.9866 92.5097 49.878 93.082 51.0428C93.6543 52.2076 93.9404 53.5902 93.9404 55.1906C93.9404 56.8112 93.6518 58.2065 93.0744 59.3764C92.4971 60.5463 91.6513 61.4427 90.5371 62.0656C89.428 62.6885 88.091 63 86.5261 63H82.7733ZM83.6241 63H81.6946V47.442H83.6241V63Z" fill="black"/>
<path d="M28.7814 47.442H29.2814V46.942H28.7814V47.442ZM28.0293 60.5843L28.4588 60.8404V60.8404L28.0293 60.5843ZM25.8947 62.5594L25.6652 62.1151L25.6642 62.1157L25.8947 62.5594ZM19.5362 62.5594L19.3058 63.0031L19.5362 62.5594ZM17.4092 60.5843L17.8386 60.3281L17.4092 60.5843ZM16.6571 47.442V46.942H16.1571V47.442H16.6571ZM18.5866 47.442H19.0866V46.942H18.5866V47.442ZM19.088 59.5891L18.6534 59.8364L18.6544 59.838L19.088 59.5891ZM20.5238 60.9641L20.7602 60.5235L20.5238 60.9641ZM24.9147 60.9641L24.6783 60.5235L24.9147 60.9641ZM26.3429 59.5891L26.7781 59.8351L26.779 59.8335L26.3429 59.5891ZM26.8366 47.442V46.942H26.3366V47.442H26.8366ZM28.2814 47.442V57.7279H29.2814V47.442H28.2814ZM28.2814 57.7279C28.2814 58.7093 28.0511 59.5715 27.5999 60.3281L28.4588 60.8404C29.0103 59.9156 29.2814 58.8735 29.2814 57.7279H28.2814ZM27.5999 60.3281C27.1492 61.0838 26.5092 61.6792 25.6652 62.1151L26.1241 63.0036C27.1236 62.4874 27.9067 61.7661 28.4588 60.8404L27.5999 60.3281ZM25.6642 62.1157C24.8295 62.5492 23.8523 62.7735 22.7192 62.7735V63.7735C23.9867 63.7735 25.1265 63.5217 26.1251 63.0031L25.6642 62.1157ZM22.7192 62.7735C21.5807 62.7735 20.6011 62.549 19.7667 62.1157L19.3058 63.0031C20.3047 63.5219 21.4471 63.7735 22.7192 63.7735V62.7735ZM19.7667 62.1157C18.9277 61.68 18.2897 61.0845 17.8386 60.3281L16.9797 60.8404C17.5314 61.7654 18.3114 62.4867 19.3058 63.0031L19.7667 62.1157ZM17.8386 60.3281C17.3874 59.5715 17.1571 58.7093 17.1571 57.7279H16.1571C16.1571 58.8735 16.4282 59.9156 16.9797 60.8404L17.8386 60.3281ZM17.1571 57.7279V47.442H16.1571V57.7279H17.1571ZM16.6571 47.942H18.5866V46.942H16.6571V47.942ZM18.0866 47.442V57.576H19.0866V47.442H18.0866ZM18.0866 57.576C18.0866 58.407 18.2715 59.165 18.6534 59.8363L19.5226 59.3418C19.2361 58.8382 19.0866 58.2542 19.0866 57.576H18.0866ZM18.6544 59.838C19.0377 60.5058 19.5866 61.0287 20.2874 61.4047L20.7602 60.5235C20.2151 60.231 19.8069 59.8372 19.5217 59.3402L18.6544 59.838ZM20.2874 61.4047C20.9956 61.7847 21.8116 61.9655 22.7192 61.9655V60.9655C21.9455 60.9655 21.2979 60.812 20.7602 60.5235L20.2874 61.4047ZM22.7192 61.9655C23.6269 61.9655 24.4429 61.7847 25.1511 61.4047L24.6783 60.5235C24.1406 60.812 23.493 60.9655 22.7192 60.9655V61.9655ZM25.1511 61.4047C25.8524 61.0283 26.3997 60.5046 26.7781 59.8351L25.9076 59.3431C25.6276 59.8384 25.2228 60.2313 24.6783 60.5235L25.1511 61.4047ZM26.779 59.8335C27.1549 59.1627 27.3366 58.4056 27.3366 57.576H26.3366C26.3366 58.2555 26.1892 58.8405 25.9067 59.3447L26.779 59.8335ZM27.3366 57.576V47.442H26.3366V57.576H27.3366ZM26.8366 47.942H28.7814V46.942H26.8366V47.942ZM31.3318 47.442V46.942H30.8318V47.442H31.3318ZM39.5742 48.0801L39.3383 48.521L39.5742 48.0801ZM41.3442 49.8425L40.8994 50.0709L40.9001 50.0722L41.3442 49.8425ZM41.3442 54.9247L41.7884 55.1544L41.789 55.1531L41.3442 54.9247ZM32.8663 57.3481H32.3663V57.8481H32.8663V57.3481ZM32.8663 55.6312V55.1312H32.3663V55.6312H32.8663ZM38.5182 55.2134L38.2809 54.7733L38.2791 54.7743L38.5182 55.2134ZM39.6501 54.0739L40.0983 54.2956L40.0992 54.2938L39.6501 54.0739ZM39.6501 50.701L39.202 50.9227L39.2029 50.9246L39.6501 50.701ZM38.5182 49.5691L38.2825 50.01L38.2843 50.011L38.5182 49.5691ZM33.2613 49.1588V48.6588H32.7613V49.1588H33.2613ZM33.2613 63V63.5H33.7613V63H33.2613ZM31.3318 63H30.8318V63.5H31.3318V63ZM31.3318 47.942H36.6191V46.942H31.3318V47.942ZM36.6191 47.942C37.7359 47.942 38.6344 48.1444 39.3383 48.521L39.8101 47.6392C38.9237 47.165 37.8522 46.942 36.6191 46.942V47.942ZM39.3383 48.521C40.0504 48.902 40.5643 49.4183 40.8994 50.0709L41.789 49.6141C41.3543 48.7677 40.6882 48.1091 39.8101 47.6392L39.3383 48.521ZM40.9001 50.0722C41.2437 50.7369 41.4216 51.5022 41.4216 52.3798H42.4216C42.4216 51.3634 42.2145 50.4371 41.7884 49.6129L40.9001 50.0722ZM41.4216 52.3798C41.4216 53.2574 41.2437 54.0258 40.8994 54.6963L41.789 55.1531C42.2145 54.3246 42.4216 53.3964 42.4216 52.3798H41.4216ZM40.9001 54.6951C40.5641 55.3448 40.0507 55.8653 39.3404 56.2569L39.8232 57.1326C40.693 56.6531 41.3545 55.9936 41.7884 55.1544L40.9001 54.6951ZM39.3404 56.2569C38.6427 56.6415 37.7538 56.8481 36.6495 56.8481V57.8481C37.8748 57.8481 38.9407 57.6191 39.8232 57.1326L39.3404 56.2569ZM36.6495 56.8481H32.8663V57.8481H36.6495V56.8481ZM33.3663 57.3481V55.6312H32.3663V57.3481H33.3663ZM32.8663 56.1312H36.5583V55.1312H32.8663V56.1312ZM36.5583 56.1312C37.4078 56.1312 38.1506 55.9829 38.7574 55.6525L38.2791 54.7743C37.8629 55.0009 37.299 55.1312 36.5583 55.1312V56.1312ZM38.7555 55.6535C39.3544 55.3306 39.81 54.8783 40.0983 54.2956L39.202 53.8522C39.0142 54.2317 38.7152 54.5391 38.2809 54.7733L38.7555 55.6535ZM40.0992 54.2938C40.3765 53.7274 40.5072 53.085 40.5072 52.3798H39.5072C39.5072 52.961 39.3999 53.448 39.2011 53.854L40.0992 54.2938ZM40.5072 52.3798C40.5072 51.675 40.3766 51.0358 40.0974 50.4774L39.2029 50.9246C39.3997 51.3182 39.5072 51.7983 39.5072 52.3798H40.5072ZM40.0983 50.4792C39.8096 49.8956 39.3528 49.4451 38.7522 49.1272L38.2843 50.011C38.7168 50.2399 39.0147 50.5441 39.202 50.9227L40.0983 50.4792ZM38.754 49.1281C38.1473 48.8038 37.4003 48.6588 36.5431 48.6588V49.6588C37.2963 49.6588 37.8662 49.7874 38.2825 50.01L38.754 49.1281ZM36.5431 48.6588H33.2613V49.6588H36.5431V48.6588ZM32.7613 49.1588V63H33.7613V49.1588H32.7613ZM33.2613 62.5H31.3318V63.5H33.2613V62.5ZM31.8318 63V47.442H30.8318V63H31.8318ZM43.7506 47.442V46.942H43.2506V47.442H43.7506ZM45.6802 47.442H46.1802V46.942H45.6802V47.442ZM45.6802 61.2831H45.1802V61.7831H45.6802V61.2831ZM52.897 61.2831H53.397V60.7831H52.897V61.2831ZM52.897 63V63.5H53.397V63H52.897ZM43.7506 63H43.2506V63.5H43.7506V63ZM43.7506 47.942H45.6802V46.942H43.7506V47.942ZM45.1802 47.442V61.2831H46.1802V47.442H45.1802ZM45.6802 61.7831H52.897V60.7831H45.6802V61.7831ZM52.397 61.2831V63H53.397V61.2831H52.397ZM52.897 62.5H43.7506V63.5H52.897V62.5ZM44.2506 63V47.442H43.2506V63H44.2506ZM66.2757 59.4448L66.7252 59.6638L66.2757 59.4448ZM63.8296 62.2327L63.5643 61.809L63.8296 62.2327ZM56.7115 62.2327L56.4452 62.6559L56.4462 62.6565L56.7115 62.2327ZM54.273 59.4448L53.8235 59.6638L54.273 59.4448ZM54.273 50.9896L53.8232 50.7713V50.7713L54.273 50.9896ZM56.7115 48.2017L56.4476 47.777L56.4467 47.7775L56.7115 48.2017ZM63.8296 48.2017L63.5657 48.6263V48.6263L63.8296 48.2017ZM64.6197 51.8785L64.1667 52.0902L64.1672 52.0911L64.6197 51.8785ZM62.8345 49.759L62.5657 50.1806L62.8345 49.759ZM57.7143 49.759L57.9831 50.1806H57.9831L57.7143 49.759ZM55.9291 51.8785L56.3816 52.0911L56.382 52.0902L55.9291 51.8785ZM55.9291 58.5711L55.4761 58.7828L55.4765 58.7838L55.9291 58.5711ZM57.7143 60.683L57.9831 60.2614L57.7143 60.683ZM62.8345 60.683L62.5657 60.2614L62.8345 60.683ZM64.6197 58.5711L65.0722 58.7838L65.0726 58.7828L64.6197 58.5711ZM66.657 55.221C66.657 56.7707 66.3745 58.101 65.8263 59.2257L66.7252 59.6638C67.352 58.3779 67.657 56.8923 67.657 55.221H66.657ZM65.8263 59.2257C65.276 60.3547 64.5212 61.2097 63.5643 61.809L64.095 62.6565C65.2246 61.9491 66.1005 60.9455 66.7252 59.6638L65.8263 59.2257ZM63.5643 61.809C62.6067 62.4086 61.515 62.7127 60.2744 62.7127V63.7127C61.6875 63.7127 62.9659 63.3635 64.095 62.6565L63.5643 61.809ZM60.2744 62.7127C59.0283 62.7127 57.9341 62.4084 56.9769 61.809L56.4462 62.6565C57.5755 63.3637 58.8566 63.7127 60.2744 63.7127V62.7127ZM56.9778 61.8095C56.0258 61.2105 55.273 60.3553 54.7224 59.2257L53.8235 59.6638C54.4479 60.9449 55.3209 61.9484 56.4452 62.6559L56.9778 61.8095ZM54.7224 59.2257C54.1743 58.101 53.8918 56.7707 53.8918 55.221H52.8918C52.8918 56.8923 53.1968 58.3779 53.8235 59.6638L54.7224 59.2257ZM53.8918 55.221C53.8918 53.6714 54.1742 52.3382 54.7228 51.208L53.8232 50.7713C53.1968 52.0619 52.8918 53.5496 52.8918 55.221H53.8918ZM54.7228 51.208C55.2734 50.0735 56.0257 49.2193 56.9763 48.6258L56.4467 47.7775C55.3209 48.4805 54.4475 49.485 53.8232 50.7713L54.7228 51.208ZM56.9754 48.6263C57.9328 48.0315 59.0275 47.7293 60.2744 47.7293V46.7293C58.8573 46.7293 57.5768 47.0753 56.4476 47.777L56.9754 48.6263ZM60.2744 47.7293C61.5158 47.7293 62.608 48.0313 63.5657 48.6263L64.0935 47.777C62.9646 47.0755 61.6867 46.7293 60.2744 46.7293V47.7293ZM63.5657 48.6263C64.5212 49.22 65.2756 50.0741 65.8259 51.208L66.7256 50.7713C66.1009 49.4843 65.2246 48.4798 64.0935 47.777L63.5657 48.6263ZM65.8259 51.208C66.3745 52.3382 66.657 53.6714 66.657 55.221H67.657C67.657 53.5496 67.352 52.0619 66.7256 50.7713L65.8259 51.208ZM65.773 55.221C65.773 53.8652 65.5463 52.6746 65.0722 51.6658L64.1672 52.0911C64.5642 52.9359 64.773 53.9737 64.773 55.221H65.773ZM65.0726 51.6667C64.603 50.662 63.9494 49.8768 63.1033 49.3374L62.5657 50.1806C63.2288 50.6034 63.7652 51.2312 64.1667 52.0902L65.0726 51.6667ZM63.1033 49.3374C62.2631 48.8017 61.3154 48.5373 60.2744 48.5373V49.5373C61.1376 49.5373 61.8966 49.754 62.5657 50.1806L63.1033 49.3374ZM60.2744 48.5373C59.2334 48.5373 58.2856 48.8017 57.4455 49.3374L57.9831 50.1806C58.6522 49.754 59.4111 49.5373 60.2744 49.5373V48.5373ZM57.4455 49.3374C56.5994 49.8768 55.9457 50.662 55.4761 51.6667L56.382 52.0902C56.7835 51.2312 57.32 50.6034 57.9831 50.1806L57.4455 49.3374ZM55.4765 51.6658C55.0025 52.6746 54.7758 53.8652 54.7758 55.221H55.7758C55.7758 53.9737 55.9846 52.9359 56.3816 52.0911L55.4765 51.6658ZM54.7758 55.221C54.7758 56.5769 55.0025 57.7696 55.4761 58.7828L56.382 58.3594C55.9846 57.509 55.7758 56.4682 55.7758 55.221H54.7758ZM55.4765 58.7838C55.9464 59.7836 56.6001 60.5656 57.4455 61.1046L57.9831 60.2614C57.3193 59.8382 56.7828 59.2123 56.3816 58.3585L55.4765 58.7838ZM57.4455 61.1046C58.2856 61.6403 59.2334 61.9047 60.2744 61.9047V60.9047C59.4111 60.9047 58.6522 60.688 57.9831 60.2614L57.4455 61.1046ZM60.2744 61.9047C61.3154 61.9047 62.2631 61.6403 63.1033 61.1046L62.5657 60.2614C61.8966 60.688 61.1376 60.9047 60.2744 60.9047V61.9047ZM63.1033 61.1046C63.9487 60.5656 64.6024 59.7836 65.0722 58.7838L64.1672 58.3585C63.7659 59.2123 63.2295 59.8382 62.5657 60.2614L63.1033 61.1046ZM65.0726 58.7828C65.5462 57.7696 65.773 56.5769 65.773 55.221H64.773C64.773 56.4682 64.5642 57.509 64.1667 58.3594L65.0726 58.7828ZM67.0364 63L66.5669 62.8281L66.3208 63.5H67.0364V63ZM72.7339 47.442V46.942H72.3845L72.2644 47.27L72.7339 47.442ZM74.7698 47.442L75.2393 47.27L75.1192 46.942H74.7698V47.442ZM80.4673 63V63.5H81.1829L80.9368 62.8281L80.4673 63ZM78.4314 63L77.9601 63.1668L78.078 63.5H78.4314V63ZM73.8126 49.9489L74.284 49.7821L74.1661 49.4489H73.8126V49.9489ZM73.6911 49.9489V49.4489H73.3377L73.2197 49.7821L73.6911 49.9489ZM69.0723 63V63.5H69.4257L69.5437 63.1668L69.0723 63ZM77.7477 56.9227H78.2477V56.4227H77.7477V56.9227ZM77.7477 58.6243V59.1243H78.2477V58.6243H77.7477ZM69.7712 58.6243H69.2712V59.1243H69.7712V58.6243ZM69.7712 56.9227V56.4227H69.2712V56.9227H69.7712ZM67.5059 63.1719L73.2034 47.6139L72.2644 47.27L66.5669 62.8281L67.5059 63.1719ZM72.7339 47.942H74.7698V46.942H72.7339V47.942ZM74.3003 47.6139L79.9978 63.1719L80.9368 62.8281L75.2393 47.27L74.3003 47.6139ZM80.4673 62.5H78.4314V63.5H80.4673V62.5ZM78.9028 62.8332L74.284 49.7821L73.3413 50.1157L77.9601 63.1668L78.9028 62.8332ZM73.8126 49.4489H73.6911V50.4489H73.8126V49.4489ZM73.2197 49.7821L68.601 62.8332L69.5437 63.1668L74.1624 50.1157L73.2197 49.7821ZM69.0723 62.5H67.0364V63.5H69.0723V62.5ZM77.2477 56.9227V58.6243H78.2477V56.9227H77.2477ZM77.7477 58.1243H69.7712V59.1243H77.7477V58.1243ZM70.2712 58.6243V56.9227H69.2712V58.6243H70.2712ZM69.7712 57.4227H77.7477V56.4227H69.7712V57.4227ZM82.7733 63H82.2733V63.5H82.7733V63ZM82.7733 61.2831V60.7831H82.2733V61.2831H82.7733ZM89.542 60.5539L89.2928 60.1204L89.2916 60.121L89.542 60.5539ZM91.4335 58.4648L91.8881 58.673L91.4335 58.4648ZM91.4411 51.9544L90.986 52.1615L90.9865 52.1625L91.4411 51.9544ZM89.6027 49.8805L89.3475 50.3105L89.3486 50.3111L89.6027 49.8805ZM82.6822 49.1588H82.1822V49.6588H82.6822V49.1588ZM82.6822 47.442V46.942H82.1822V47.442H82.6822ZM90.5979 48.3688L90.3494 48.8027L90.3503 48.8032L90.5979 48.3688ZM93.082 51.0428L92.6333 51.2633L93.082 51.0428ZM93.0744 59.3764L92.6261 59.1551L93.0744 59.3764ZM90.5371 62.0656L90.2931 61.6292L90.2923 61.6297L90.5371 62.0656ZM83.6241 63V63.5H84.1241V63H83.6241ZM81.6946 63H81.1946V63.5H81.6946V63ZM81.6946 47.442V46.942H81.1946V47.442H81.6946ZM83.6241 47.442H84.1241V46.942H83.6241V47.442ZM83.2733 63V61.2831H82.2733V63H83.2733ZM82.7733 61.7831H86.4045V60.7831H82.7733V61.7831ZM86.4045 61.7831C87.7186 61.7831 88.8566 61.5278 89.7923 60.9867L89.2916 60.121C88.5459 60.5523 87.5923 60.7831 86.4045 60.7831V61.7831ZM89.7912 60.9873C90.7293 60.4481 91.4305 59.6719 91.8881 58.673L90.979 58.2565C90.606 59.0707 90.0462 59.6873 89.2928 60.1204L89.7912 60.9873ZM91.8881 58.673C92.3405 57.6855 92.5565 56.5193 92.5565 55.1906H91.5565C91.5565 56.4144 91.3572 57.4309 90.979 58.2565L91.8881 58.673ZM92.5565 55.1906C92.5565 53.8771 92.343 52.7236 91.8958 51.7464L90.9865 52.1625C91.3597 52.9781 91.5565 53.982 91.5565 55.1906H92.5565ZM91.8962 51.7473C91.4456 50.7571 90.7648 49.9856 89.8568 49.4499L89.3486 50.3111C90.0714 50.7376 90.6162 51.3488 90.986 52.1615L91.8962 51.7473ZM89.858 49.4506C88.9526 48.913 87.8587 48.6588 86.6021 48.6588V49.6588C87.7257 49.6588 88.6323 49.8858 89.3475 50.3105L89.858 49.4506ZM86.6021 48.6588H82.6822V49.6588H86.6021V48.6588ZM83.1822 49.1588V47.442H82.1822V49.1588H83.1822ZM82.6822 47.942H86.7236V46.942H82.6822V47.942ZM86.7236 47.942C88.1588 47.942 89.3607 48.2364 90.3494 48.8027L90.8464 47.9349C89.6776 47.2655 88.2967 46.942 86.7236 46.942V47.942ZM90.3503 48.8032C91.3435 49.3694 92.1032 50.1845 92.6333 51.2633L93.5308 50.8223C92.9163 49.5715 92.0199 48.6039 90.8455 47.9344L90.3503 48.8032ZM92.6333 51.2633C93.1649 52.3454 93.4404 53.6492 93.4404 55.1906H94.4404C94.4404 53.5313 94.1437 52.0699 93.5308 50.8223L92.6333 51.2633ZM93.4404 55.1906C93.4404 56.7527 93.1622 58.0687 92.6261 59.1551L93.5228 59.5977C94.1413 58.3443 94.4404 56.8698 94.4404 55.1906H93.4404ZM92.6261 59.1551C92.0924 60.2364 91.3169 61.0568 90.2931 61.6292L90.7811 62.502C91.9857 61.8286 92.9017 60.8562 93.5228 59.5977L92.6261 59.1551ZM90.2923 61.6297C89.2733 62.202 88.0248 62.5 86.5261 62.5V63.5C88.1572 63.5 89.5827 63.1751 90.782 62.5016L90.2923 61.6297ZM86.5261 62.5H82.7733V63.5H86.5261V62.5ZM83.6241 62.5H81.6946V63.5H83.6241V62.5ZM82.1946 63V47.442H81.1946V63H82.1946ZM81.6946 47.942H83.6241V46.942H81.6946V47.942ZM83.1241 47.442V63H84.1241V47.442H83.1241Z" fill="black"/>
</svg>
