<svg width="30" height="30" viewBox="0 0 30 30" fill="none" xmlns="http://www.w3.org/2000/svg">
<mask id="mask0_348_4158" style="mask-type:alpha" maskUnits="userSpaceOnUse" x="2" y="2" width="26" height="26">
<path fill-rule="evenodd" clip-rule="evenodd" d="M2.5 15C2.5 8.1 8.1 2.5 15 2.5C21.9 2.5 27.5 8.1 27.5 15C27.5 21.9 21.9 27.5 15 27.5C8.1 27.5 2.5 21.9 2.5 15ZM5 15C5 20.525 9.475 25 15 25C20.525 25 25 20.525 25 15C25 9.475 20.525 5 15 5C9.475 5 5 9.475 5 15Z" fill="white"/>
</mask>
<g mask="url(#mask0_348_4158)">
<rect width="30" height="30" fill="black" fill-opacity="0.6"/>
</g>
</svg>
