<svg width="24" height="24" viewBox="0 0 24 24" fill="none" xmlns="http://www.w3.org/2000/svg">
<g clip-path="url(#clip0_350_9774)">
<path fill-rule="evenodd" clip-rule="evenodd" d="M6.74485 27C6.36333 27 6.07443 26.6252 6.14111 26.2168L6.88397 21.6667H2.70832C2.32739 21.6667 2.03865 21.2931 2.10431 20.8851L2.31893 19.5517C2.37028 19.2328 2.62506 19 2.92294 19H7.31319L8.61314 11H4.43749C4.05656 11 3.76783 10.6264 3.83349 10.2184L4.0481 8.88508C4.09945 8.56608 4.35424 8.33333 4.65211 8.33333H9.04236L9.82326 3.55016C9.87522 3.23188 10.1297 3 10.427 3H11.6342C12.0157 3 12.3046 3.37476 12.2379 3.78317L11.4951 8.33333H18.8533L19.6342 3.55016C19.6861 3.23188 19.9405 3 20.2379 3H21.4451C21.8266 3 22.1155 3.37476 22.0488 3.78317L21.306 8.33333H25.4816C25.8625 8.33333 26.1513 8.70697 26.0856 9.11492L25.871 10.4483C25.8197 10.7673 25.5649 11 25.267 11H20.8768L19.5768 19H23.7525C24.1334 19 24.4222 19.3736 24.3564 19.7816L24.1418 21.1149C24.0906 21.4339 23.8357 21.6667 23.5378 21.6667H19.1476L18.3666 26.4499C18.3148 26.7681 18.0603 27 17.7629 27H16.5558C16.1743 27 15.8853 26.6252 15.9521 26.2168L16.6949 21.6667H9.33669L8.55579 26.4499C8.50383 26.7681 8.24935 27 7.95204 27H6.74485ZM11.0664 11L9.76646 19H17.1246L18.4245 11H11.0664Z" fill="#747F8D"/>
</g>
<defs>
<clipPath id="clip0_350_9774">
<rect width="24" height="24" fill="white"/>
</clipPath>
</defs>
</svg>
