<svg width="20" height="20" viewBox="0 0 20 20" fill="none" xmlns="http://www.w3.org/2000/svg">
<g clip-path="url(#clip0_350_9814)">
<path fill-rule="evenodd" clip-rule="evenodd" d="M12.4916 9.16663C12.4916 10.55 11.3833 11.6666 9.99996 11.6666C8.61663 11.6666 7.49996 10.55 7.49996 9.16663V4.16663C7.49996 2.78329 8.61663 1.66663 9.99996 1.66663C11.3833 1.66663 12.5 2.78329 12.5 4.16663L12.4916 9.16663ZM9.99996 13.4166C12.3 13.4166 14.4166 11.6666 14.4166 9.16663H15.8333C15.8333 12.0166 13.5666 14.3666 10.8333 14.7666V17.5H9.16663V14.7666C6.43329 14.3583 4.16663 12.0083 4.16663 9.16663H5.58329C5.58329 11.6666 7.69996 13.4166 9.99996 13.4166ZM9.99996 3.33329C9.33329 3.33329 9.16663 3.88885 9.16663 4.16663V9.16663C9.16663 9.44438 9.33329 9.99996 9.99996 9.99996C10.6666 9.99996 10.8333 9.44438 10.8333 9.16663V4.16663C10.8333 3.88885 10.6666 3.33329 9.99996 3.33329Z" fill="#ACACAC"/>
<path fill-rule="evenodd" clip-rule="evenodd" d="M12.4916 9.16663C12.4916 10.55 11.3833 11.6666 9.99996 11.6666C8.61663 11.6666 7.49996 10.55 7.49996 9.16663V4.16663C7.49996 2.78329 8.61663 1.66663 9.99996 1.66663C11.3833 1.66663 12.5 2.78329 12.5 4.16663L12.4916 9.16663ZM9.99996 13.4166C12.3 13.4166 14.4166 11.6666 14.4166 9.16663H15.8333C15.8333 12.0166 13.5666 14.3666 10.8333 14.7666V18.3333H9.16663V14.7666C6.43329 14.3583 4.16663 12.0083 4.16663 9.16663H5.58329C5.58329 11.6666 7.69996 13.4166 9.99996 13.4166Z" fill="#ACACAC"/>
<path d="M19.2134 1L-0.786621 21" stroke="#EE6762" stroke-width="1.5" stroke-linecap="round"/>
</g>
<defs>
<clipPath id="clip0_350_9814">
<rect width="20" height="20" fill="white"/>
</clipPath>
</defs>
</svg>
