<svg width="20" height="20" viewBox="0 0 20 20" fill="none" xmlns="http://www.w3.org/2000/svg">
<path d="M9.99996 1.66919C5.40496 1.66919 1.66663 5.40669 1.66663 10.0026V16.6692C1.66663 17.5892 2.41246 18.3359 3.33329 18.3359H4.99996C5.91996 18.3359 6.66663 17.5892 6.66663 16.6692V14.1692C6.66663 13.2492 5.91996 12.5026 4.99996 12.5026H3.33329V10.0026C3.33329 6.32586 6.32413 3.33586 9.99996 3.33586C13.6758 3.33586 16.6666 6.32586 16.6666 10.0026V12.5026H15C14.08 12.5026 13.3333 13.2492 13.3333 14.1692V16.6692C13.3333 17.5892 14.08 18.3359 15 18.3359H16.6666C17.5866 18.3359 18.3333 17.5892 18.3333 16.6692V10.0026C18.3333 5.40669 14.595 1.66919 9.99996 1.66919Z" fill="#4F5660"/>
</svg>
