<svg width="20" height="20" viewBox="0 0 20 20" fill="none" xmlns="http://www.w3.org/2000/svg">
<path d="M3.66848 9.37792C3.66575 10.4032 3.9103 11.4147 4.38221 12.3298C4.94175 13.4265 5.80194 14.3489 6.86644 14.9938C7.93093 15.6386 9.15768 15.9804 10.4093 15.9809C11.456 15.9836 12.4885 15.744 13.4228 15.2818L17.9431 16.7577L16.4363 12.3298C16.9083 11.4147 17.1528 10.4032 17.1501 9.37792C17.1496 8.1519 16.8007 6.95023 16.1424 5.9075C15.4841 4.86477 14.5424 4.02217 13.4228 3.47407C12.4885 3.0118 11.456 2.77225 10.4093 2.77492H10.0128C8.3598 2.86425 6.79856 3.54768 5.62796 4.69434C4.45736 5.84101 3.75967 7.37034 3.66848 8.98951V9.37792Z" stroke="#5B5B5B" stroke-width="1.5" stroke-linecap="round" stroke-linejoin="round"/>
<line x1="7.67407" y1="7.9126" x2="12.1844" y2="7.9126" stroke="#5B5B5B" stroke-width="1.5" stroke-linecap="round" stroke-linejoin="round"/>
<line x1="7.67407" y1="10.8564" x2="11.1827" y2="10.8564" stroke="#5B5B5B" stroke-width="1.5" stroke-linecap="round" stroke-linejoin="round"/>
</svg>
