<svg width="24" height="24" viewBox="0 0 24 24" fill="none" xmlns="http://www.w3.org/2000/svg">
<path d="M12.0001 9.00427C9.79412 9.00427 8.00012 10.7983 8.00012 13.0043C8.00012 15.2103 9.79412 17.0043 12.0001 17.0043C14.2061 17.0043 16.0001 15.2103 16.0001 13.0043C16.0001 10.7983 14.2061 9.00427 12.0001 9.00427Z" fill="#FFFFFF"/>
<path d="M20 6.00417H18.07C17.402 6.00417 16.777 5.67017 16.406 5.11317L15.593 3.89317C15.222 3.33717 14.597 3.00317 13.929 3.00317H10.07C9.402 3.00317 8.777 3.33717 8.406 3.89317L7.593 5.11317C7.223 5.67017 6.598 6.00417 5.93 6.00417H4C2.896 6.00417 2 6.90017 2 8.00417V19.0042C2 20.1082 2.896 21.0042 4 21.0042H20C21.104 21.0042 22 20.1082 22 19.0042V8.00417C22 6.89917 21.104 6.00417 20 6.00417ZM12 19.0042C8.691 19.0042 6 16.3132 6 13.0042C6 9.69517 8.691 7.00417 12 7.00417C15.309 7.00417 18 9.69517 18 13.0042C18 16.3132 15.309 19.0042 12 19.0042Z" fill="#FFFFFF"/>
<path d="M12 8.99931C9.794 8.99931 8 10.7933 8 12.9993C8 15.2053 9.794 16.9993 12 16.9993C14.206 16.9993 16 15.2053 16 12.9993C16 10.7933 14.206 8.99931 12 8.99931Z" fill="#FFFFFF"/>
</svg>
