<svg width="30" height="30" viewBox="0 0 30 30" fill="none" xmlns="http://www.w3.org/2000/svg">
<mask id="mask0_348_4155" style="mask-type:alpha" maskUnits="userSpaceOnUse" x="2" y="2" width="26" height="26">
<path fill-rule="evenodd" clip-rule="evenodd" d="M15 2.5C8.1 2.5 2.5 8.1 2.5 15C2.5 21.9 8.1 27.5 15 27.5C21.9 27.5 27.5 21.9 27.5 15C27.5 8.1 21.9 2.5 15 2.5ZM15 25C9.475 25 5 20.525 5 15C5 9.475 9.475 5 15 5C20.525 5 25 9.475 25 15C25 20.525 20.525 25 15 25ZM21.25 15C21.25 18.4518 18.4518 21.25 15 21.25C11.5482 21.25 8.75 18.4518 8.75 15C8.75 11.5482 11.5482 8.75 15 8.75C18.4518 8.75 21.25 11.5482 21.25 15Z" fill="white"/>
</mask>
<g mask="url(#mask0_348_4155)">
<rect width="30" height="30" fill="#0055FB"/>
</g>
</svg>
