<svg width="24" height="24" viewBox="0 0 24 24" fill="none" xmlns="http://www.w3.org/2000/svg">
<path fill-rule="evenodd" clip-rule="evenodd" d="M14 8.00598C14 10.211 12.206 12.006 10 12.006C7.795 12.006 6 10.211 6 8.00598C6 5.80098 7.794 4.00598 10 4.00598C12.206 4.00598 14 5.80098 14 8.00598ZM2 19.006C2 15.473 5.29 13.006 10 13.006C14.711 13.006 18 15.473 18 19.006V20.006H2V19.006Z" fill="#4F5659"/>
<path fill-rule="evenodd" clip-rule="evenodd" d="M14 8.00598C14 10.211 12.206 12.006 10 12.006C7.795 12.006 6 10.211 6 8.00598C6 5.80098 7.794 4.00598 10 4.00598C12.206 4.00598 14 5.80098 14 8.00598ZM2 19.006C2 15.473 5.29 13.006 10 13.006C14.711 13.006 18 15.473 18 19.006V20.006H2V19.006Z" fill="#4F5659"/>
<path d="M20 20.006H22V19.006C22 16.4433 20.2696 14.4415 17.5212 13.5352C19.062 14.9127 20 16.8059 20 19.006V20.006Z" fill="#4F5659"/>
<path d="M14.8834 11.9077C16.6657 11.5044 18.0001 9.90774 18.0001 8.00602C18.0001 5.9692 16.4693 4.28222 14.4971 4.03674C15.4322 5.09515 16.0001 6.48528 16.0001 8.00602C16.0001 9.44892 15.4889 10.7742 14.6378 11.8102C14.7203 11.8418 14.8022 11.8743 14.8834 11.9077Z" fill="#4F5659"/>
</svg>
