<svg width="24" height="24" viewBox="0 0 24 24" fill="none" xmlns="http://www.w3.org/2000/svg">
<path d="M17.3399 14.5399L15.9099 13.1099C16.4699 12.3799 16.9599 11.6099 17.3799 10.7899L15.1799 8.58994C14.8999 8.30994 14.8199 7.91994 14.9299 7.56994C15.2999 6.44994 15.4999 5.24994 15.4999 3.99994C15.4999 3.44994 15.9499 2.99994 16.4999 2.99994H19.9999C20.5499 2.99994 20.9999 3.44994 20.9999 3.99994C20.9999 7.97994 19.6299 11.6399 17.3399 14.5399ZM14.5199 17.3499C11.6299 19.6399 7.96989 20.9999 3.99989 20.9999C3.44989 20.9999 2.99989 20.5499 2.99989 19.9999V16.5099C2.99989 15.9599 3.44989 15.5099 3.99989 15.5099C5.23989 15.5099 6.44989 15.3099 7.56989 14.9399C7.91989 14.8199 8.31989 14.9099 8.58989 15.1799L10.7899 17.3799C11.5999 16.9599 12.3699 16.4799 13.0899 15.9199L1.38989 4.21994L2.80989 2.80994L21.1899 21.1999L19.7799 22.6099L14.5199 17.3499V17.3499Z" fill="#FFFFFF"/>
</svg>
