<svg width="24" height="24" viewBox="0 0 24 24" fill="none" xmlns="http://www.w3.org/2000/svg">
<path d="M21.22 18.0199L23.22 20.0199H24V18.0199H21.22ZM21.99 16.0199L22 6.01986C22 4.90986 21.1 4.01986 20 4.01986H7.22L12.45 9.24986C12.63 9.20986 12.81 9.17986 13 9.14986V7.01986L17 10.7499L15.42 12.2199L20.96 17.7599C21.57 17.4299 21.99 16.7699 21.99 16.0199V16.0199ZM2.39 1.72986L1.11 2.99986L2.65 4.53986C2.25 4.89986 2 5.42986 2 6.01986V16.0199C2 17.1199 2.89 18.0199 4 18.0199H0V20.0199H18.13L20.84 22.7299L22.11 21.4599L2.39 1.72986ZM7 15.0199C7.31 13.5399 7.92 12.0699 9.07 10.9599L10.66 12.5499C9.12 12.9299 7.96 13.7299 7 15.0199V15.0199Z" fill="#FFFFFF"/>
</svg>
